<?xml version="1.0" encoding="UTF-8" standalone="no"?>
<!-- Created with Inkscape (http://www.inkscape.org/) -->

<svg
   width="512"
   height="350"
   viewBox="0 0 135.46666 92.604169"
   version="1.1"
   id="svg5"
   inkscape:version="1.2.2 (732a01da63, 2022-12-09, custom)"
   sodipodi:docname="ecommerce.svg"
   xml:space="preserve"
   xmlns:inkscape="http://www.inkscape.org/namespaces/inkscape"
   xmlns:sodipodi="http://sodipodi.sourceforge.net/DTD/sodipodi-0.dtd"
   xmlns="http://www.w3.org/2000/svg"
   xmlns:svg="http://www.w3.org/2000/svg"><sodipodi:namedview
     id="namedview7"
     pagecolor="#ffffff"
     bordercolor="#000000"
     borderopacity="0.25"
     inkscape:showpageshadow="2"
     inkscape:pageopacity="0.0"
     inkscape:pagecheckerboard="0"
     inkscape:deskcolor="#d1d1d1"
     inkscape:document-units="mm"
     showgrid="false"
     inkscape:zoom="1.6806484"
     inkscape:cx="150.53714"
     inkscape:cy="168.38739"
     inkscape:window-width="1600"
     inkscape:window-height="836"
     inkscape:window-x="0"
     inkscape:window-y="27"
     inkscape:window-maximized="1"
     inkscape:current-layer="layer1" /><defs
     id="defs2" /><g
     inkscape:label="Camada 1"
     inkscape:groupmode="layer"
     id="layer1"><rect
       id="b93b1ef9-49b5-4354-905b-d9dddde45a10"
       data-name="Rectangle 338"
       x="6.8905759"
       y="2.6213028"
       width="89.296516"
       height="57.189384"
       fill="#e6e6e6"
       style="stroke-width:0.595132;fill:#e6e6e6;fill-opacity:0.43061852" /><rect
       id="ef7485f9-8ecd-46d9-949e-abdd8aa9e360"
       data-name="Rectangle 339"
       x="9.4440241"
       y="9.7942486"
       width="84.189629"
       height="46.63308"
       fill="#ffffff"
       style="stroke-width:0.595132;fill:#ffffff;fill-opacity:0.38726529" /><rect
       id="b4c2a7ec-beab-40bc-b587-23a202562f78"
       data-name="Rectangle 340"
       width="89.296516"
       height="3.7936044"
       fill="#0ea5e9"
       x="6.852489"
       y="2.5707479"
       style="stroke-width:0.595132" /><circle
       id="bd6d3ebf-cb6f-4fcb-b7cd-ad5a287d3324"
       data-name="Ellipse 513"
       cx="9.6717234"
       cy="4.5103474"
       r="0.70318115"
       fill="#ffffff"
       style="stroke-width:0.595132" /><circle
       id="efb1158e-7a7d-4adb-9063-fc7dc50c76d5"
       data-name="Ellipse 514"
       cx="12.340543"
       cy="4.5103474"
       r="0.70318115"
       fill="#ffffff"
       style="stroke-width:0.595132" /><circle
       id="b51f9e19-f36b-4f29-afd5-008bb0fc20dd"
       data-name="Ellipse 515"
       cx="15.00936"
       cy="4.5103474"
       r="0.70318115"
       fill="#ffffff"
       style="stroke-width:0.595132" /><rect
       id="b636d421-4358-445b-b124-1d058e78c733"
       data-name="Rectangle 341"
       x="19.802546"
       y="13.629958"
       width="16.466238"
       height="17.864428"
       fill="#e6e6e6"
       style="stroke-width:0.595132" /><rect
       id="ab9c902d-64a9-4a2b-a9ec-6dc7022c80f6"
       data-name="Rectangle 342"
       x="43.30558"
       y="13.629958"
       width="16.466238"
       height="17.864428"
       fill="#e6e6e6"
       style="stroke-width:0.595132" /><rect
       id="f4a232af-026e-479b-8040-5c62e5965d9e"
       data-name="Rectangle 343"
       x="66.808479"
       y="13.629958"
       width="16.466238"
       height="17.864428"
       fill="#e6e6e6"
       style="stroke-width:0.595132" /><rect
       id="ada16aa4-f84d-4851-87ee-a2852d96226a"
       data-name="Rectangle 344"
       x="19.802546"
       y="34.727882"
       width="16.466238"
       height="17.864428"
       fill="#e6e6e6"
       style="stroke-width:0.595132" /><rect
       id="ebfcbe07-3b81-4d69-a4f5-6a8318d20e8d"
       data-name="Rectangle 345"
       x="43.30558"
       y="34.727882"
       width="16.466238"
       height="17.864428"
       fill="#e6e6e6"
       style="stroke-width:0.595132" /><rect
       id="ead16b6d-d132-49a9-a42f-1f570e523a46"
       data-name="Rectangle 346"
       x="66.808479"
       y="34.727882"
       width="16.466238"
       height="17.864428"
       fill="#e6e6e6"
       style="stroke-width:0.595132" /><path
       id="ab8ff6e3-f37e-4992-8347-ee905fdba816-925"
       data-name="Path 2643"
       d="m 47.285473,39.31913 3.008568,-1.189467 0.349859,5.947192 c 0,0 0.629636,1.819102 0.419804,2.518821 0,0 0.139888,1.189466 -0.209971,1.25941 -0.34986,0.06994 -1.329632,0.209971 -1.398883,0.139888 -0.06925,-0.07008 -0.06994,-0.279915 -0.06994,-0.279915 0,0 -0.699719,0.489748 -0.769663,1.04944 0,0 -2.938624,0.90955 -3.008568,0.06994 -0.06994,-0.839607 1.469243,-1.539326 1.469243,-1.539326 l 1.189466,-1.819102 z"
       fill="#ffffff"
       style="stroke-width:0.595132" /><path
       id="e647835b-1773-4993-9de9-376235a5ef39-926"
       data-name="Path 2644"
       d="m 53.652744,39.31913 3.008152,-1.189467 0.34986,5.947192 c 0,0 0.629636,1.819102 0.419803,2.518821 0,0 0.139888,1.189466 -0.209971,1.25941 -0.349859,0.06994 -1.329631,0.209971 -1.398883,0.139888 -0.06925,-0.07008 -0.06994,-0.279915 -0.06994,-0.279915 0,0 -0.699719,0.489748 -0.769663,1.04944 0,0 -2.938624,0.90955 -3.008568,0.06994 -0.06994,-0.839607 1.469243,-1.539326 1.469243,-1.539326 l 1.189466,-1.819102 z"
       fill="#ffffff"
       style="stroke-width:0.595132" /><path
       id="ee50e840-b8e9-4cc0-9b2e-64e12816c6e5-927"
       data-name="Path 2645"
       d="m 53.946649,16.353207 c 0,0 -0.640577,1.790016 0.101662,2.597213 l -0.618833,2.126441 c 0,0 2.198601,6.595803 1.570489,7.517127 0,0 -2.345138,1.172568 -7.035966,-0.418834 l 1.905389,-7.391504 -0.272159,-3.119925 0.376867,-1.46578 0.83753,-0.0831 c 0,0 -0.50249,1.884475 0.418834,2.177687 0.921323,0.293211 1.820071,-2.130596 1.820071,-2.130596 z"
       fill="#3f3d56"
       style="stroke-width:0.595132" /><path
       id="b668efb4-5504-4326-941b-9be143c4d030-928"
       data-name="Path 2646"
       d="m 24.36221,27.908122 0.808443,0.330746 3.858424,-5.07102 1.212596,5.95287 0.808444,-0.146952 c 0.518556,-5.132238 0.941822,-10.366969 0.422573,-12.842854 l -2.994856,-0.128669 -1.359548,4.336675 -0.661492,2.939732 z"
       fill="#ffffff"
       style="stroke-width:0.595132" /><path
       id="b699d661-049e-451c-8a7e-64343ac1c335-929"
       data-name="Path 2647"
       d="m 73.427961,16.090329 c 0,0 -1.103317,1.533785 -1.049439,2.152757 0.05388,0.618971 0.753458,10.710042 0.753458,10.710042 l 1.64154,0.08075 -0.484761,-7.265604 0.403598,-1.964392 0.9957,9.149249 2.01827,0.05388 -1.802897,-11.867099 -0.349859,-1.049439 z"
       fill="#ffffff"
       style="stroke-width:0.595132" /><path
       id="a4f25674-ecb7-42aa-ae9a-d508200b11eb-930"
       data-name="Path 2648"
       d="m 79.663659,40.800144 c -0.292934,-0.351522 -0.796532,-0.541548 -1.280047,-0.644318 0.01385,-0.0439 -1.470628,-0.35069 -1.495835,-0.287532 l -0.559692,-0.445842 -1.719795,0.89293 -0.966337,-0.65789 -0.448889,0.159278 c 0.01828,-0.07922 -1.393482,0.165373 -1.393482,0.165373 -0.269666,0.0097 -0.614123,0.02659 -0.999716,0.05623 -1.350269,0.103877 -1.454285,3.601085 -1.454285,3.601085 a 5.5193733,5.5193733 0 0 1 1.954697,-0.409278 l 0.364956,4.182799 c 1.877135,-0.160941 3.84582,0.02632 5.886389,0.484762 l 0.956919,-3.288068 2.228379,-0.866615 c 0,0 -0.380745,-2.112036 -1.073262,-2.942917 z"
       fill="#3f3d56"
       style="stroke-width:0.595132" /><path
       id="b6d7fb25-d94e-4ba0-9382-3f72a4c565e4-931"
       data-name="Path 2649"
       d="m 31.844159,38.808327 c -0.241411,-0.289611 -0.656229,-0.446258 -1.054702,-0.530883 0.01191,-0.03629 -1.211766,-0.288918 -1.23268,-0.236841 l -0.461215,-0.367311 -1.41675,0.73573 -0.796256,-0.541964 -0.369803,0.131302 c 0.0151,-0.06524 -1.148193,0.136148 -1.148193,0.136148 -0.221605,0.008 -0.506091,0.02188 -0.823679,0.0464 -1.112596,0.0856 -1.198191,2.966878 -1.198191,2.966878 a 4.5480319,4.5480319 0 0 1 1.610654,-0.337255 l 0.300691,8.436788 c 1.546666,-0.132686 3.168816,0.02175 4.849692,0.399444 l 0.78836,-7.699397 1.836138,-0.713985 c 0,0 -0.313572,-1.740153 -0.884066,-2.425054 z"
       fill="#ffffff"
       style="stroke-width:0.595132" /><path
       id="abb48a01-b3b6-4bc9-9e6f-5cc93133d8eb-932"
       data-name="Path 2682"
       d="m 110.65377,41.054017 h 7.89468 v -4.224349 a 3.9473432,3.9473432 0 1 0 -7.89468,0 z"
       fill="#2f2e41"
       style="stroke-width:0.595132" /><path
       id="f1b40e10-dbea-4491-93e9-bf21ee1afe95-933"
       data-name="Path 2683"
       d="m 107.12955,88.054271 h -1.69791 l -0.80789,-6.550097 h 2.50608 z"
       fill="#ffb6b6"
       style="stroke-width:0.595132" /><path
       id="f19e2682-d3fb-40a9-8809-be7b68a78ac9-934"
       data-name="Path 2684"
       d="m 107.56265,87.499842 h -3.34416 a 2.1311498,2.1311498 0 0 0 -2.13101,2.130873 v 0.06925 h 5.47517 z"
       fill="#2f2e41"
       style="stroke-width:0.595132" /><path
       id="b3618d44-3857-42e4-aed2-10e127155f21-935"
       data-name="Path 2685"
       d="m 127.42776,85.78822 -1.47866,0.83476 -3.92352,-5.306199 2.18239,-1.231987 z"
       fill="#ffb6b6"
       style="stroke-width:0.595132" /><path
       id="a172411a-a77d-4e4f-ac70-c8342021cfb1-936"
       data-name="Path 2686"
       d="M 127.53233,85.09252 124.6203,86.736 v 0 a 2.1311498,2.1311498 0 0 0 -0.80803,2.903444 l 0.0341,0.06025 4.76784,-2.691534 z"
       fill="#2f2e41"
       style="stroke-width:0.595132" /><path
       id="bd1532c7-07e2-44c0-82ff-fc8e0d37942d-937"
       data-name="Path 2687"
       d="m 116.57547,58.598642 0.13103,0.655121 c 0,0 0.39307,0.393072 0.19653,0.589608 -0.19653,0.196536 -0.13102,1.113843 -0.13102,1.113843 0.10997,1.672566 2.29541,11.071398 2.68627,12.906981 0,0 3.01383,1.9655 5.3724,5.830988 2.35858,3.865488 2.42381,4.848307 2.42381,4.848307 l -2.6202,1.113982 -6.55121,-7.92765 c 0,0 -1.83448,-1.113844 -2.48973,-2.096524 -0.65526,-0.982681 -4.71798,-11.138156 -4.71798,-11.138156 l -2.29361,10.613929 c 0,0 0.13102,3.865488 -0.45859,6.355223 a 26.664967,26.664967 0 0 0 -0.65512,4.782795 l -3.07934,-0.327561 c 0,0 0.19653,-9.303541 0.52409,-10.28636 0,0 -1.37589,-11.334554 1.3759,-15.855301 l 2.21771,-5.912289 2.17201,-0.836006 z"
       fill="#2f2e41"
       style="stroke-width:0.595132" /><path
       id="e2a54528-859f-4f0e-9aca-6130773a8d3b-938"
       data-name="Path 2688"
       d="m 114.64183,33.915003 c -4.1339,0.07064 -4.13321,6.219767 0,6.289711 4.13363,-0.07064 4.13308,-6.219765 0,-6.289711 z"
       fill="#ffb8b8"
       style="stroke-width:0.595132" /><path
       id="aeace49c-5333-476f-965d-52da8fac2318-939"
       data-name="Path 2689"
       d="m 111.46027,36.896705 h 0.70263 l 0.19127,-0.478391 -0.0957,0.478391 h 3.84277 l -0.12465,-1.000964 0.93406,1.000964 h 0.93172 v -0.542379 a 3.1908408,3.1908408 0 1 0 -6.38168,-0.0045 v 0.0045 z"
       fill="#2f2e41"
       style="stroke-width:0.595132" /><path
       id="aa5a3aa9-e50b-4b43-b42d-0c1415925835-940"
       data-name="Path 2690"
       d="m 110.37898,42.040993 7.81158,0.0633 -1.6504,16.7474 c 0,0 -9.13554,-0.48213 -9.14122,-3.270616 l 0.85581,-2.477962 z"
       fill="#3f3d56"
       style="stroke-width:0.595132" /><path
       id="aca4d347-909c-4b66-b72e-6bb1477aee43-941"
       data-name="Path 2693"
       d="m 118.52629,60.470652 a 1.2987452,1.2987452 0 0 1 0.37396,-1.955943 l -0.33947,-2.948319 1.7414,-0.643348 0.42091,4.170472 a 1.3058088,1.3058088 0 0 1 -2.1968,1.377138 z"
       fill="#ffb6b6"
       style="stroke-width:0.595132" /><path
       id="eab38d24-ad2d-4cbe-aaaa-db975580c866-942"
       data-name="Path 2694"
       d="m 117.16342,43.547076 1.02783,-1.436694 c 0,0 0.70346,-0.156093 1.53448,0.813429 0.83102,0.969523 1.31578,13.088559 1.31578,13.088559 l -3.04707,0.692517 -1.80054,-8.587203 z"
       fill="#3f3d56"
       style="stroke-width:0.595132" /><polygon
       points="672.135,390.739 673.771,468.476 724.096,495.071 815.744,478.705 817.995,397.899 759.896,377.441 "
       fill="#ffffff"
       id="polygon8282"
       style="stroke-width:4.29688"
       transform="matrix(0.13850327,0,0,0.13850327,6.852489,2.5707478)" /><path
       d="m 107.12399,71.255948 -7.0619,-3.731917 -0.230113,-10.930096 12.279413,-1.860523 0.0262,0.0092 8.12342,2.860384 -0.31645,11.363583 z m -6.84211,-3.867573 6.87842,3.63496 12.56673,-2.244064 0.30688,-11.020205 -7.94407,-2.79728 -12.03118,1.822917 z"
       fill="#cacaca"
       id="path8284"
       style="stroke-width:0.595132" /><polygon
       points="817.885,397.103 818.105,398.695 722.973,411.816 722.776,411.738 671.838,391.485 672.431,389.992 723.173,410.166 "
       fill="#cacaca"
       id="polygon8286"
       style="stroke-width:4.29688"
       transform="matrix(0.13850327,0,0,0.13850327,6.852489,2.5707478)" /><rect
       x="106.15758"
       y="60.791485"
       width="0.22262877"
       height="11.646132"
       transform="rotate(-0.69694909)"
       fill="#cacaca"
       id="rect8288"
       style="stroke-width:0.595132" /><polygon
       points="716.536,407.792 698.174,400.348 786.569,386.263 804.931,393.706 "
       fill="#cacaca"
       id="polygon8290"
       style="stroke-width:4.29688"
       transform="matrix(0.13850327,0,0,0.13850327,6.852489,2.5707478)" /><rect
       x="-15.618193"
       y="115.492"
       width="0.22261214"
       height="3.2113991"
       transform="rotate(-66.705538)"
       fill="#cacaca"
       id="rect8292"
       style="stroke-width:0.595132" /><rect
       x="-18.46368"
       y="118.17135"
       width="0.22261214"
       height="3.2113991"
       transform="rotate(-66.705538)"
       fill="#0ea5e9"
       id="rect8294"
       style="stroke-width:0.595132" /><polygon
       points="392.135,498.739 393.771,576.476 444.096,603.071 535.744,586.705 537.995,505.899 479.896,485.441 "
       fill="#ffffff"
       id="polygon8296"
       style="stroke-width:4.29688"
       transform="matrix(0.13850327,0,0,0.13850327,6.852489,2.5707478)" /><path
       d="m 68.343071,86.214301 -7.061898,-3.731917 -0.230112,-10.930096 12.279413,-1.860523 0.02617,0.0092 8.123418,2.860385 -0.316447,11.363582 z m -6.842107,-3.867573 6.878417,3.634961 12.566729,-2.244065 0.306881,-11.020205 -7.944069,-2.79728 -12.031173,1.822918 z"
       fill="#cacaca"
       id="path8298"
       style="stroke-width:0.595132" /><polygon
       points="537.885,505.103 538.105,506.695 442.973,519.816 442.776,519.738 391.838,499.485 392.431,497.992 443.173,518.166 "
       fill="#cacaca"
       id="polygon8300"
       style="stroke-width:4.29688"
       transform="matrix(0.13850327,0,0,0.13850327,6.852489,2.5707478)" /><rect
       x="67.197578"
       y="75.277016"
       width="0.22262877"
       height="11.646132"
       transform="rotate(-0.69694909)"
       fill="#cacaca"
       id="rect8302"
       style="stroke-width:0.595132" /><polygon
       points="432.088,513.962 418.174,508.348 506.569,494.263 520.482,499.877 "
       fill="#cacaca"
       id="polygon8304"
       style="stroke-width:4.29688"
       transform="matrix(0.13850327,0,0,0.13850327,6.852489,2.5707478)" /><rect
       x="-44.693386"
       y="85.787704"
       width="0.22261214"
       height="3.2113991"
       transform="rotate(-66.705538)"
       fill="#cacaca"
       id="rect8306"
       style="stroke-width:0.595132" /><rect
       x="-47.538872"
       y="88.467056"
       width="0.22261214"
       height="3.2113991"
       transform="rotate(-66.705538)"
       fill="#0ea5e9"
       id="rect8308"
       style="stroke-width:0.595132" /><polygon
       points="479.563,509.397 481.463,599.638 539.882,630.51 646.271,611.512 648.883,517.709 581.44,493.961 "
       fill="#0ea5e9"
       id="polygon8310"
       style="stroke-width:4.29688"
       transform="matrix(0.13850327,0,0,0.13850327,6.852489,2.5707478)" /><path
       d="M 81.606774,90.033419 73.40905,85.701265 73.141927,73.01319 l 14.254417,-2.159769 0.03038,0.01067 9.429972,3.320437 -0.367343,13.191284 z m -7.942591,-4.48962 7.984731,4.219601 14.587944,-2.604996 0.356239,-12.79268 -9.221774,-3.24719 -13.966254,2.116109 z"
       fill="#3f3d56"
       id="path8312"
       style="stroke-width:0.595132" /><polygon
       points="648.755,516.785 649.01,518.633 538.578,533.865 538.35,533.774 479.218,510.264 479.907,508.53 538.81,531.949 "
       fill="#3f3d56"
       id="polygon8314"
       style="stroke-width:4.29688"
       transform="matrix(0.13850327,0,0,0.13850327,6.852489,2.5707478)" /><rect
       x="80.399094"
       y="77.365372"
       width="0.2584374"
       height="13.51928"
       transform="rotate(-0.69694909)"
       fill="#3f3d56"
       id="rect8316"
       style="stroke-width:0.595132" /><polygon
       points="526.888,527.112 509.79,520.553 612.402,504.202 629.501,510.761 "
       fill="#3f3d56"
       id="polygon8318"
       style="stroke-width:4.29688"
       transform="matrix(0.13850327,0,0,0.13850327,6.852489,2.5707478)" /><rect
       x="-41.755074"
       y="97.698677"
       width="0.25841662"
       height="3.7279153"
       transform="rotate(-66.705538)"
       fill="#3f3d56"
       id="rect8320"
       style="stroke-width:0.595132" /><rect
       x="-45.058235"
       y="100.80897"
       width="0.25841662"
       height="3.7279153"
       transform="rotate(-66.705538)"
       fill="#ffffff"
       id="rect8322"
       style="stroke-width:0.595132" /><path
       id="af1e2e82-f248-43bd-a869-489ddf745161-943"
       data-name="Path 2691"
       d="m 103.8973,58.469695 a 1.2987452,1.2987452 0 0 0 0.50872,-1.925195 l 1.58199,-2.511064 -1.29141,-1.33351 -2.18433,3.577401 a 1.3058088,1.3058088 0 0 0 1.38503,2.192507 z"
       fill="#ffb6b6"
       style="stroke-width:0.595132" /><path
       id="ed6195a6-5e50-4e12-8380-54bfefa6b2ae-944"
       data-name="Path 2692"
       d="m 111.57939,42.701098 -1.13338,-0.746809 c 0,0 -0.87464,0.19612 -1.80483,1.985305 -0.93019,1.789186 -4.68141,9.788304 -4.68141,9.788304 l 1.54195,1.565086 4.11355,-6.275444 z"
       fill="#3f3d56"
       style="stroke-width:0.595132" /></g></svg>
