<?xml version="1.0" encoding="utf-8"?>
<!-- Generator: Adobe Illustrator 25.2.1, SVG Export Plug-In . SVG Version: 6.00 Build 0)  -->
<svg version="1.1"
	 id="svg8" xmlns:cc="http://creativecommons.org/ns#" xmlns:dc="http://purl.org/dc/elements/1.1/" xmlns:inkscape="http://www.inkscape.org/namespaces/inkscape" xmlns:rdf="http://www.w3.org/1999/02/22-rdf-syntax-ns#" xmlns:sodipodi="http://sodipodi.sourceforge.net/DTD/sodipodi-0.dtd" xmlns:svg="http://www.w3.org/2000/svg"
	 xmlns="http://www.w3.org/2000/svg" xmlns:xlink="http://www.w3.org/1999/xlink" x="0px" y="0px" viewBox="0 0 841.9 470.6"
	 style="enable-background:new 0 0 841.9 470.6;" xml:space="preserve">
<style type="text/css">
	.st0{fill:url(#path2998_1_);}
	.st1{fill:url(#rect3000_1_);}
	.st2{fill:url(#rect3000-5_1_);}
	.st3{fill:url(#path2994_1_);}
	.st4{fill:url(#path2996_1_);}
</style>
<g>
	
		<linearGradient id="path2998_1_" gradientUnits="userSpaceOnUse" x1="-197.4771" y1="568.1639" x2="-147.3937" y2="611.0123" gradientTransform="matrix(23.6032 0 0 39.1184 5189.7139 -22048.7012)">
		<stop  offset="0" style="stop-color:#17135F"/>
		<stop  offset="1" style="stop-color:#0468B4"/>
	</linearGradient>
	<path id="path2998_12_" sodipodi:nodetypes="ccccc" class="st0" d="M656.4,449.5h171.4L567.2,211.6l-61,85.3L656.4,449.5z"/>
	
		<linearGradient id="rect3000_1_" gradientUnits="userSpaceOnUse" x1="-217.3212" y1="575.0917" x2="-216.8492" y2="524.2087" gradientTransform="matrix(23.3675 0 0 39.1184 5144.3589 -22048.7012)">
		<stop  offset="0" style="stop-color:#0468B4"/>
		<stop  offset="1" style="stop-color:#17135F"/>
	</linearGradient>
	<rect id="rect3000_12_" x="15.4" y="168.8" class="st1" width="103" height="281.3"/>
	
		<linearGradient id="rect3000-5_1_" gradientUnits="userSpaceOnUse" x1="-202.9708" y1="571.6068" x2="-203.0956" y2="520.0795" gradientTransform="matrix(23.4171 0 0 39.1184 5155.0635 -22048.7012)">
		<stop  offset="0" style="stop-color:#17135F"/>
		<stop  offset="1" style="stop-color:#0468B4"/>
	</linearGradient>
	<rect id="rect3000-5_12_" x="350.3" y="31" class="st2" width="103.2" height="281.3"/>
	
		<linearGradient id="path2994_1_" gradientUnits="userSpaceOnUse" x1="-219.3235" y1="569.8109" x2="-127.606" y2="569.8109" gradientTransform="matrix(23.6032 0 0 39.1184 5189.7139 -22048.7012)">
		<stop  offset="0" style="stop-color:#0271B9"/>
		<stop  offset="1" style="stop-color:#114390"/>
	</linearGradient>
	<path id="path2994_12_" class="st3" d="M15.4,249.9L14.2,96.8c0,0-3-36.9,24.5-58.4c27.7-21.5,58.2-10.5,58.2-10.5s9.2,1.1,28,22.7
		s15,16.2,15,16.2l204.7,208.1c0,0,24.5,29.8,57.7,12.8c33.2-17.3,51.5-58.1,51.5-58.1v161.9c0,0-0.7,40.3-34,59
		c-33.2,19-63.7-4.5-63.7-4.5L119.4,204.2c0,0-25.2-27.8-59.7-4.8C25.4,222.6,15.4,249.9,15.4,249.9L15.4,249.9z"/>
	
		<linearGradient id="path2996_1_" gradientUnits="userSpaceOnUse" x1="-197.8176" y1="571.8392" x2="-149.3842" y2="525.6693" gradientTransform="matrix(23.5885 0 0 39.0943 5187.1714 -22035.2383)">
		<stop  offset="0" style="stop-color:#0271B9"/>
		<stop  offset="1" style="stop-color:#114390"/>
	</linearGradient>
	<path id="path2996_12_" sodipodi:nodetypes="ccscccc" class="st4" d="M565.7,357.6l-79.2-80.8c0,0-36.7-37.7-0.2-81.4
		S653.2,31.8,653.2,31.8h165.2L574.2,237.7C574.2,237.4,531,289.3,565.7,357.6L565.7,357.6z"/>
</g>
</svg>
