<?xml version="1.0" encoding="UTF-8" standalone="no"?>
<!-- Generator: Adobe Illustrator 25.2.1, SVG Export Plug-In . SVG Version: 6.00 Build 0)  -->

<svg
   version="1.1"
   id="svg8"
   x="0px"
   y="0px"
   viewBox="0 0 841.9 470.6"
   style="enable-background:new 0 0 841.9 470.6;"
   xml:space="preserve"
   sodipodi:docname="logo.svg"
   inkscape:version="1.2.1 (ef4d3fba62, 2022-07-19, custom)"
   xmlns:inkscape="http://www.inkscape.org/namespaces/inkscape"
   xmlns:sodipodi="http://sodipodi.sourceforge.net/DTD/sodipodi-0.dtd"
   xmlns="http://www.w3.org/2000/svg"
   xmlns:svg="http://www.w3.org/2000/svg"><defs
   id="defs62">
	
		<linearGradient
   id="path2998_1_"
   gradientUnits="userSpaceOnUse"
   x1="-197.4771"
   y1="568.1639"
   x2="-147.3937"
   y2="611.0123"
   gradientTransform="matrix(23.6032,0,0,39.1184,5189.7139,-22048.701)">
		<stop
   offset="0"
   style="stop-color:#ffffff;stop-opacity:1;"
   id="stop27" />
		<stop
   offset="1"
   style="stop-color:#17135f;stop-opacity:1;"
   id="stop29" />
	</linearGradient>
	
	
		<linearGradient
   id="rect3000_1_"
   gradientUnits="userSpaceOnUse"
   x1="-217.3212"
   y1="575.0917"
   x2="-216.8492"
   y2="524.2087"
   gradientTransform="matrix(23.3675,0,0,39.1184,5144.3589,-22048.701)">
		<stop
   offset="0"
   style="stop-color:#ffffff;stop-opacity:1;"
   id="stop33" />
		<stop
   offset="1"
   style="stop-color:#17135F"
   id="stop35" />
	</linearGradient>
	
	
		<linearGradient
   id="rect3000-5_1_"
   gradientUnits="userSpaceOnUse"
   x1="-202.9708"
   y1="571.6068"
   x2="-203.0956"
   y2="520.0795"
   gradientTransform="matrix(23.4171,0,0,39.1184,5155.0635,-22048.701)">
		<stop
   offset="0"
   style="stop-color:#ffffff;stop-opacity:1;"
   id="stop39" />
		<stop
   offset="1"
   style="stop-color:#17135f;stop-opacity:1;"
   id="stop41" />
	</linearGradient>
	
	
		<linearGradient
   id="path2994_1_"
   gradientUnits="userSpaceOnUse"
   x1="-219.3235"
   y1="569.8109"
   x2="-127.606"
   y2="569.8109"
   gradientTransform="matrix(23.6032,0,0,39.1184,5189.7139,-22048.701)">
		<stop
   offset="0"
   style="stop-color:#faffff;stop-opacity:1;"
   id="stop45" />
		<stop
   offset="1"
   style="stop-color:#114390"
   id="stop47" />
	</linearGradient>
	
	
		<linearGradient
   id="path2996_1_"
   gradientUnits="userSpaceOnUse"
   x1="-197.8176"
   y1="571.8392"
   x2="-149.3842"
   y2="525.6693"
   gradientTransform="matrix(23.5885,0,0,39.0943,5187.1714,-22035.238)">
		<stop
   offset="0"
   style="stop-color:#faffff;stop-opacity:1;"
   id="stop51" />
		<stop
   offset="1"
   style="stop-color:#114390"
   id="stop53" />
	</linearGradient>
	
</defs><sodipodi:namedview
   id="namedview60"
   pagecolor="#ffffff"
   bordercolor="#000000"
   borderopacity="0.25"
   inkscape:showpageshadow="2"
   inkscape:pageopacity="0.0"
   inkscape:pagecheckerboard="0"
   inkscape:deskcolor="#d1d1d1"
   showgrid="false"
   inkscape:zoom="0.75278474"
   inkscape:cx="634.97568"
   inkscape:cy="193.28235"
   inkscape:window-width="1308"
   inkscape:window-height="704"
   inkscape:window-x="0"
   inkscape:window-y="0"
   inkscape:window-maximized="1"
   inkscape:current-layer="svg8" />
<style
   type="text/css"
   id="style25">
	.st0{fill:url(#path2998_1_);}
	.st1{fill:url(#rect3000_1_);}
	.st2{fill:url(#rect3000-5_1_);}
	.st3{fill:url(#path2994_1_);}
	.st4{fill:url(#path2996_1_);}
</style>
<path
   id="path2998_12_"
   sodipodi:nodetypes="ccccc"
   class="st0"
   d="m 656.4,449.5 h 171.4 l -260.6,-237.9 -61,85.3 z"
   style="fill:url(#path2998_1_)" /><rect
   id="rect3000_12_"
   x="15.4"
   y="168.8"
   class="st1"
   width="103"
   height="281.29999"
   style="fill:url(#rect3000_1_)" /><rect
   id="rect3000-5_12_"
   x="350.29999"
   y="31"
   class="st2"
   width="103.2"
   height="281.29999"
   style="fill:url(#rect3000-5_1_)" /><path
   id="path2994_12_"
   class="st3"
   d="M 15.4,249.9 14.2,96.8 c 0,0 -3,-36.9 24.5,-58.4 27.7,-21.5 58.2,-10.5 58.2,-10.5 0,0 9.2,1.1 28,22.7 18.8,21.6 15,16.2 15,16.2 l 204.7,208.1 c 0,0 24.5,29.8 57.7,12.8 33.2,-17.3 51.5,-58.1 51.5,-58.1 v 161.9 c 0,0 -0.7,40.3 -34,59 -33.2,19 -63.7,-4.5 -63.7,-4.5 L 119.4,204.2 c 0,0 -25.2,-27.8 -59.7,-4.8 -34.3,23.2 -44.3,50.5 -44.3,50.5 z"
   style="fill:url(#path2994_1_)" /><path
   id="path2996_12_"
   sodipodi:nodetypes="ccscccc"
   class="st4"
   d="m 565.7,357.6 -79.2,-80.8 c 0,0 -36.7,-37.7 -0.2,-81.4 C 522.8,151.7 653.2,31.8 653.2,31.8 H 818.4 L 574.2,237.7 c 0,-0.3 -43.2,51.6 -8.5,119.9 z"
   style="fill:url(#path2996_1_)" />
</svg>
