<?xml version="1.0" encoding="UTF-8" standalone="no"?>
<!-- Created with Inkscape (http://www.inkscape.org/) -->

<svg
   width="512"
   height="350"
   viewBox="0 0 135.46666 92.604169"
   version="1.1"
   id="svg5"
   inkscape:version="1.2.2 (732a01da63, 2022-12-09, custom)"
   sodipodi:docname="system"
   xmlns:inkscape="http://www.inkscape.org/namespaces/inkscape"
   xmlns:sodipodi="http://sodipodi.sourceforge.net/DTD/sodipodi-0.dtd"
   xmlns="http://www.w3.org/2000/svg"
   xmlns:svg="http://www.w3.org/2000/svg">
  <sodipodi:namedview
     id="namedview7"
     pagecolor="#ffffff"
     bordercolor="#000000"
     borderopacity="0.25"
     inkscape:showpageshadow="2"
     inkscape:pageopacity="0.0"
     inkscape:pagecheckerboard="0"
     inkscape:deskcolor="#d1d1d1"
     inkscape:document-units="mm"
     showgrid="false"
     inkscape:zoom="0.59419893"
     inkscape:cx="254.12365"
     inkscape:cy="292.83122"
     inkscape:window-width="1600"
     inkscape:window-height="836"
     inkscape:window-x="0"
     inkscape:window-y="27"
     inkscape:window-maximized="1"
     inkscape:current-layer="layer1" />
  <defs
     id="defs2" />
  <g
     inkscape:label="Camada 1"
     inkscape:groupmode="layer"
     id="layer1">
    <g
       id="g5152">
      <g
         id="g5095"
         transform="matrix(1.0007255,0,0,1.0007255,-39.998206,-74.791559)"
         style="stroke-width:0.999275">
        <path
           d="m 145.53258,116.09069 0.37906,-3.03833 a 4.1029228,4.1029228 0 0 1 8.14272,1.01588 l -0.37906,3.03833 a 0.55176145,0.55176145 0 0 1 -0.61513,0.47867 l -7.04892,-0.87942 a 0.55176006,0.55176006 0 0 1 -0.47867,-0.61513 z"
           fill="#2f2e41"
           id="path1456"
           style="stroke-width:0.264391" />
        <circle
           cx="148.90907"
           cy="113.98902"
           fill="#ffb8b8"
           id="circle1458"
           style="stroke-width:0.264391"
           r="3.0081172" />
        <path
           d="m 144.91813,113.17527 a 3.2492644,3.2492644 0 0 1 3.62243,-2.81883 l 0.60769,0.0758 a 3.24924,3.24924 0 0 1 2.8188,3.62243 l -0.008,0.0608 -1.2842,-0.16022 -0.28499,-1.28113 -0.2406,1.21556 -0.66368,-0.0828 -0.14379,-0.64639 -0.12142,0.61331 -4.31024,-0.53774 z"
           fill="#2f2e41"
           id="path1460"
           style="stroke-width:0.264391" />
        <path
           d="m 134.19649,124.71953 a 1.385658,1.385658 0 0 0 2.07069,0.47618 l 2.7322,1.60052 1.37758,-1.42313 -3.89013,-2.20604 a 1.393169,1.393169 0 0 0 -2.29034,1.55248 z"
           fill="#ffb8b8"
           id="path1462"
           style="stroke-width:0.264391" />
        <path
           d="m 143.15116,127.59548 c -2.01531,0 -5.56168,-0.90218 -5.75805,-0.95259 l -0.062,-0.0159 0.55816,-2.82595 5.41671,1.06988 2.9427,-4.14389 3.37848,-0.34346 -0.0943,0.1241 c -0.0439,0.0578 -4.39897,5.79081 -5.07673,6.75253 -0.17104,0.24264 -0.65957,0.33525 -1.30495,0.33525 z"
           fill="#3f3d56"
           id="path1464"
           style="stroke-width:0.264391" />
        <path
           d="m 143.69146,138.20188 -0.0806,-0.0385 c -0.0172,-0.008 -1.72941,-0.84105 -2.61627,-2.46694 -0.88263,-1.6182 3.24921,-8.48265 3.53826,-8.95895 l 0.004,-2.17997 1.48638,-4.01303 1.89558,-1.0714 -1.62751,3.79745 z"
           fill="#3f3d56"
           id="path1466"
           style="stroke-width:0.264391" />
        <polygon
           points="723.259,564.012 723.257,615.591 709.885,615.59 703.523,564.011 "
           fill="#ffb8b8"
           id="polygon1468"
           transform="matrix(0.13547905,0,0,0.13547905,43.806261,78.232475)"
           style="stroke-width:1.95153" />
        <path
           d="m 142.25442,163.38822 -5.84156,-2.7e-4 v -0.0739 a 2.2738247,2.2738247 0 0 1 2.2737,-2.27361 h 1.3e-4 l 3.56783,1.4e-4 z"
           fill="#2f2e41"
           id="path1470"
           style="stroke-width:0.264391" />
        <polygon
           points="850.832,554.857 866.891,603.872 854.184,608.035 832.077,561.002 "
           fill="#ffb8b8"
           id="polygon1472"
           transform="matrix(0.13547905,0,0,0.13547905,43.806261,78.232475)"
           style="stroke-width:1.95153" />
        <path
           d="m 162.23774,161.56942 -5.5512,1.8188 -0.023,-0.0702 a 2.2738234,2.2738234 0 0 1 1.45266,-2.86863 l 1.4e-4,-4e-5 3.39049,-1.11085 z"
           fill="#2f2e41"
           id="path1474"
           style="stroke-width:0.264391" />
        <path
           d="m 157.74414,158.90199 -5.16453,-8.622 -4.35976,-9.21162 -3.92323,8.13694 -1.55851,10.53866 -5.46563,0.0759 0.0215,-0.0855 8.36415,-33.23443 6.55068,0.97865 -0.29818,4.32394 0.17758,0.25258 c 1.47979,2.10217 3.00981,4.27565 2.13228,6.61862 l 2.4877,7.38665 5.50671,12.29962 z"
           fill="#2f2e41"
           id="path1476"
           style="fill:#2f2e41;fill-opacity:1;stroke-width:0.264391" />
        <path
           d="m 145.95746,133.70289 c -0.94921,0 -2.03219,-1.08383 -1.47035,-2.93424 l -0.0364,-0.0263 1.34947,-5.96214 c -1.17767,-1.68422 0.37501,-3.07421 0.52051,-3.19838 l 0.74117,-1.33408 3.27015,-2.07393 1.65459,13.74762 -0.0245,0.0234 c -1.195,1.14337 -5.20843,1.75806 -6.00467,1.75806 z"
           fill="#0ea5e9"
           id="path1478"
           style="stroke-width:0.264391" />
        <path
           d="m 152.65461,136.80502 a 1.6096726,1.6096726 0 0 1 -0.38629,-0.0409 c -0.12718,-0.0319 -0.33308,-0.19382 -0.65124,-1.22976 -1.26485,-4.11822 -2.75823,-16.50953 -1.67328,-17.7221 l 0.0248,-0.0278 1.78141,0.29689 c 0.14808,-0.10928 0.92513,-0.65172 1.64218,-0.55739 a 1.0883032,1.0883032 0 0 1 0.74468,0.44017 l 0.0123,0.0161 0.56752,8.07378 2.07909,9.50126 -0.0499,0.0226 c -0.12096,0.055 -2.71709,1.22712 -4.09133,1.22712 z"
           fill="#3f3d56"
           id="path1480"
           style="stroke-width:0.264391" />
        <path
           d="m 151.45658,133.64937 a 1.3856634,1.3856634 0 0 0 1.30905,-1.6736 l 2.60777,-1.79611 -0.70498,-1.85096 -3.64706,2.58819 a 1.393169,1.393169 0 0 0 0.43522,2.73248 z"
           fill="#ffb8b8"
           id="path1482"
           style="stroke-width:0.264391" />
        <path
           d="m 154.51291,131.61884 -2.32286,-1.70341 3.26516,-4.45242 -2.5057,-4.42179 1.12105,-3.20559 0.0724,0.13805 c 0.0337,0.0643 3.37997,6.43889 3.96369,7.46048 0.60731,1.06266 -3.38291,5.92866 -3.55305,6.13519 z"
           fill="#3f3d56"
           id="path1484"
           style="stroke-width:0.264391" />
        <path
           d="m 102.26273,151.65867 -1.97695,-0.83243 -1.356189,-9.91047 h -18.05997 l -1.47001,9.86999 -1.76869,0.88433 a 0.42000672,0.42000672 0 0 0 0.18785,0.79567 h 24.281019 a 0.41998504,0.41998504 0 0 0 0.16294,-0.80709 z"
           fill="#e6e6e6"
           id="path1486"
           style="fill:#d9d9d9;fill-opacity:0.459671;stroke-width:0.264391" />
        <path
           d="M 134.35655,142.23431 H 45.640921 a 1.7576293,1.7576293 0 0 1 -1.75369,-1.75761 v -12.51006 h 92.222999 v 12.51007 a 1.7576469,1.7576469 0 0 1 -1.75368,1.7576 z"
           fill="#cccccc"
           id="path1488"
           style="stroke-width:0.264391" />
        <path
           d="M 136.20297,133.87919 H 43.806261 V 80.351243 a 2.1212212,2.1212212 0 0 1 2.11884,-2.118768 H 134.0841 a 2.1212442,2.1212442 0 0 1 2.11887,2.118768 z"
           fill="#3f3d56"
           id="path1490"
           style="fill:#3f3d56;fill-opacity:1;stroke-width:0.264391" />
        <path
           d="M 130.68448,129.99413 H 49.324751 a 1.6352646,1.6352646 0 0 1 -1.63347,-1.63343 V 83.75097 a 1.6353513,1.6353513 0 0 1 1.63347,-1.633527 h 81.359729 a 1.6353513,1.6353513 0 0 1 1.63347,1.633527 v 44.60973 a 1.6352646,1.6352646 0 0 1 -1.63347,1.63343 z"
           fill="#ffffff"
           id="path1492"
           style="fill:#ffffff;fill-opacity:0.168227;stroke-width:0.264391" />
        <path
           d="M 112.82199,152.56914 H 67.104831 a 0.21226992,0.21226992 0 0 1 -0.20851,-0.15358 0.20716236,0.20716236 0 0 1 0.20013,-0.25997 h 45.708599 a 0.21884607,0.21884607 0 0 1 0.21896,0.16171 0.20703772,0.20703772 0 0 1 -0.20202,0.25184 z"
           fill="#cccccc"
           id="path1494"
           style="fill:#d9d9d9;fill-opacity:0.459671;stroke-width:0.264391" />
        <rect
           x="110.172"
           y="89.329483"
           width="19.643911"
           height="15.007462"
           fill="#f2f2f2"
           id="rect1496"
           style="fill:#f2f2f2;fill-opacity:0.514215;stroke-width:0.264391" />
        <rect
           x="111.14809"
           y="90.075195"
           width="17.691723"
           height="13.516036"
           fill="#ffffff"
           id="rect1498"
           style="fill:#ffffff;fill-opacity:0.258352;stroke-width:0.264391" />
        <path
           d="m 120.30464,100.10073 q 0.004,4e-5 0.007,-1.4e-4 a 4.7169401,4.7169401 0 0 0 0.10554,-9.414289 0.10760287,0.10760287 0 0 0 -0.0814,0.02823 0.10647569,0.10647569 0 0 0 -0.0348,0.07797 l -0.10313,9.199298 a 0.10798628,0.10798628 0 0 0 0.10679,0.108941 z"
           fill="#3f3d56"
           id="path1500"
           style="stroke-width:0.264391" />
        <path
           d="m 116.60533,92.207467 a 0.13889853,0.13889853 0 0 1 0.0975,0.04164 l 3.16694,3.238745 a 0.13740014,0.13740014 0 0 1 0.0394,0.09824 l -0.0494,4.401908 a 0.13691377,0.13691377 0 0 1 -0.0447,0.10023 0.1390015,0.1390015 0 0 1 -0.10449,0.0363 4.74779,4.74779 0 0 1 -3.21079,-7.870058 0.13905027,0.13905027 0 0 1 0.10038,-0.04695 q 0.003,-6.1e-5 0.005,-3.3e-5 z"
           fill="#e6e6e6"
           id="path1502"
           style="stroke-width:0.264391" />
        <path
           d="m 119.82566,90.648685 a 0.13944994,0.13944994 0 0 1 0.0948,0.03873 0.13701673,0.13701673 0 0 1 0.0425,0.101319 l -0.0445,3.971674 a 0.13829295,0.13829295 0 0 1 -0.23714,0.09514 l -2.76354,-2.826207 a 0.13858287,0.13858287 0 0 1 0.007,-0.20073 4.7577612,4.7577612 0 0 1 2.89188,-1.179751 c 0.003,-1.36e-4 0.006,-1.36e-4 0.009,-1.36e-4 z"
           fill="#0ea5e9"
           id="path1504"
           style="stroke-width:0.264391" />
        <path
           d="m 118.40199,102.00836 a 0.84720871,0.84720871 0 1 1 -0.83766,-0.85665 0.84817197,0.84817197 0 0 1 0.83766,0.85665 z"
           fill="#0ea5e9"
           id="path1506"
           style="stroke-width:0.264391" />
        <path
           d="m 120.82243,102.03549 a 0.84720871,0.84720871 0 1 1 -0.83765,-0.85665 0.84817468,0.84817468 0 0 1 0.83765,0.85665 z"
           fill="#3f3d56"
           id="path1508"
           style="stroke-width:0.264391" />
        <path
           d="m 123.24288,102.06263 a 0.84720871,0.84720871 0 1 1 -0.83766,-0.85665 0.84817197,0.84817197 0 0 1 0.83766,0.85665 z"
           fill="#e6e6e6"
           id="path1510"
           style="stroke-width:0.264391" />
        <rect
           x="109.96521"
           y="106.69884"
           width="19.643911"
           height="15.007462"
           fill="#f2f2f2"
           id="rect1512"
           style="fill:#f2f2f2;fill-opacity:0.514215;stroke-width:0.264391" />
        <rect
           x="110.94131"
           y="107.44455"
           width="17.691723"
           height="13.516036"
           fill="#ffffff"
           id="rect1514"
           style="fill:#ffffff;fill-opacity:0.258352;stroke-width:0.264391" />
        <circle
           cx="113.94304"
           cy="111.15228"
           fill="#3f3d56"
           id="circle1516"
           style="stroke-width:0.264391"
           r="0.73457146" />
        <path
           d="m 125.74567,110.58065 a 0.49817406,0.49817406 0 1 1 0,0.99634 h -7.72577 a 0.49817339,0.49817339 0 1 1 0,-0.99634 h 7.72577 m 0,-0.12202 h -7.72577 a 0.62018646,0.62018646 0 1 0 0,1.24037 h 7.72577 a 0.62018646,0.62018646 0 1 0 0,-1.24037 z"
           fill="#3f3d56"
           id="path1518"
           style="stroke-width:0.264391" />
        <path
           d="m 122.69722,111.699 h -5.81589 a 0.62018595,0.62018595 0 1 1 0,-1.24037 h 5.81589 a 0.62018595,0.62018595 0 0 1 0,1.24037 z"
           fill="#0ea5e9"
           id="path1520"
           style="stroke-width:0.264391" />
        <circle
           cx="113.94304"
           cy="114.20257"
           fill="#3f3d56"
           id="circle1522"
           style="stroke-width:0.264391"
           r="0.73457146" />
        <path
           d="m 125.74567,113.63094 a 0.4981755,0.4981755 0 1 1 0,0.99635 h -7.72577 a 0.4981755,0.4981755 0 1 1 0,-0.99635 h 7.72577 m 0,-0.12201 h -7.72577 a 0.620186,0.620186 0 1 0 0,1.24037 h 7.72577 a 0.620186,0.620186 0 1 0 0,-1.24037 z"
           fill="#3f3d56"
           id="path1524"
           style="stroke-width:0.264391" />
        <path
           d="m 124.89343,114.7493 h -8.01209 a 0.620186,0.620186 0 1 1 0,-1.24037 h 8.01209 a 0.620186,0.620186 0 0 1 0,1.24037 z"
           fill="#0ea5e9"
           id="path1526"
           style="stroke-width:0.264391" />
        <circle
           cx="113.94304"
           cy="117.25287"
           fill="#3f3d56"
           id="circle1528"
           style="stroke-width:0.264391"
           r="0.73457146" />
        <path
           d="m 125.74567,116.68124 a 0.498175,0.498175 0 1 1 0,0.99635 h -7.72577 a 0.498175,0.498175 0 1 1 0,-0.99635 h 7.72577 m 0,-0.12201 h -7.72577 a 0.620186,0.620186 0 1 0 0,1.24037 h 7.72577 a 0.620186,0.620186 0 1 0 0,-1.24037 z"
           fill="#3f3d56"
           id="path1530"
           style="stroke-width:0.264391" />
        <path
           d="m 120.13497,117.7996 h -3.25364 a 0.62018513,0.62018513 0 1 1 0,-1.24037 h 3.25364 a 0.62018513,0.62018513 0 0 1 0,1.24037 z"
           fill="#0ea5e9"
           id="path1532"
           style="stroke-width:0.264391" />
        <rect
           x="50.741222"
           y="91.984657"
           width="54.881657"
           height="28.126848"
           fill="#f2f2f2"
           id="rect1534"
           style="fill:#f2f2f2;fill-opacity:0.514215;stroke-width:0.264391" />
        <rect
           x="52.570599"
           y="93.382263"
           width="51.222885"
           height="25.331633"
           fill="#ffffff"
           id="rect1536"
           style="fill:#ffffff;fill-opacity:0.258352;stroke-width:0.264391" />
        <path
           d="m 97.440771,114.84931 h -37.3405 a 0.11686422,0.11686422 0 0 1 -0.11686,-0.11686 V 96.835154 a 0.11686,0.11686 0 1 1 0.23372,0 v 17.780436 h 37.22364 a 0.11686,0.11686 0 0 1 0,0.23372 z"
           fill="#3f3d56"
           id="path1538"
           style="stroke-width:0.264391" />
        <path
           d="m 68.078311,113.56387 h -3.39626 a 0.34728156,0.34728156 0 0 1 -0.3469,-0.34687 v -4.68177 a 0.34728292,0.34728292 0 0 1 0.3469,-0.34686 h 3.39626 a 0.34728292,0.34728292 0 0 1 0.3469,0.34686 v 4.68177 a 0.34728156,0.34728156 0 0 1 -0.3469,0.34687 z"
           fill="#0ea5e9"
           id="path1540"
           style="stroke-width:0.264391" />
        <path
           d="m 74.271821,113.56387 h -3.39626 a 0.34728156,0.34728156 0 0 1 -0.3469,-0.34687 v -9.1224 a 0.34728156,0.34728156 0 0 1 0.3469,-0.34686 h 3.39626 a 0.34728156,0.34728156 0 0 1 0.3469,0.34686 v 9.1224 a 0.34728156,0.34728156 0 0 1 -0.3469,0.34687 z"
           fill="#0ea5e9"
           id="path1542"
           style="stroke-width:0.264391" />
        <path
           d="m 80.465341,113.56387 h -3.39627 a 0.34728292,0.34728292 0 0 1 -0.34689,-0.34687 v -4.68177 a 0.34728292,0.34728292 0 0 1 0.34689,-0.34686 h 3.39627 a 0.34728292,0.34728292 0 0 1 0.34689,0.34686 v 4.68177 a 0.34728292,0.34728292 0 0 1 -0.34689,0.34687 z"
           fill="#0ea5e9"
           id="path1544"
           style="stroke-width:0.264391" />
        <path
           d="m 86.658851,113.56387 h -3.39627 a 0.33969203,0.33969203 0 0 1 -0.3469,-0.33116 V 102.326 a 0.33969203,0.33969203 0 0 1 0.3469,-0.33115 h 3.39626 a 0.33969203,0.33969203 0 0 1 0.3469,0.33115 v 10.90671 a 0.33969203,0.33969203 0 0 1 -0.34689,0.33116 z"
           fill="#0ea5e9"
           id="path1546"
           style="stroke-width:0.264391" />
        <path
           d="m 92.852361,113.56387 h -3.39627 A 0.34728156,0.34728156 0 0 1 89.109201,113.217 V 99.186536 a 0.34728156,0.34728156 0 0 1 0.34689,-0.346867 h 3.39627 a 0.34728156,0.34728156 0 0 1 0.34689,0.346867 V 113.217 a 0.34728156,0.34728156 0 0 1 -0.34689,0.34687 z"
           fill="#0ea5e9"
           id="path1548"
           style="stroke-width:0.264391" />
        <circle
           cx="66.380173"
           cy="106.08491"
           fill="#3f3d56"
           id="circle1550"
           style="stroke-width:0.264391"
           r="0.70115286" />
        <circle
           cx="72.573685"
           cy="101.52742"
           fill="#3f3d56"
           id="circle1552"
           style="stroke-width:0.264391"
           r="0.70115286" />
        <circle
           cx="78.767197"
           cy="106.08491"
           fill="#3f3d56"
           id="circle1554"
           style="stroke-width:0.264391"
           r="0.70115286" />
        <circle
           cx="84.960709"
           cy="99.307098"
           fill="#3f3d56"
           id="circle1556"
           style="stroke-width:0.264391"
           r="0.70115286" />
        <circle
           cx="91.154236"
           cy="96.736214"
           fill="#3f3d56"
           id="circle1558"
           style="stroke-width:0.264391"
           r="0.70115286" />
        <polygon
           points="167.14,206.275 166.106,204.895 212.339,170.265 257.945,204.425 303.266,154.83 303.447,154.756 349.163,136.337 349.808,137.937 304.274,156.283 258.163,206.744 212.339,172.421 "
           fill="#3f3d56"
           id="polygon1560"
           transform="matrix(0.13547905,0,0,0.13547905,43.806261,78.232475)"
           style="stroke-width:1.95153" />
        <path
           d="m 171.36618,163.77923 h -51.61752 a 0.13547904,0.13547904 0 0 1 0,-0.27095 h 51.61752 a 0.13547904,0.13547904 0 0 1 0,0.27095 z"
           fill="#cccccc"
           id="path1562"
           style="stroke-width:0.264391" />
      </g>
    </g>
  </g>
</svg>
